<?xml version="1.0" standalone="no"?>
<!DOCTYPE svg PUBLIC "-//W3C//DTD SVG 20010904//EN"
 "http://www.w3.org/TR/2001/REC-SVG-20010904/DTD/svg10.dtd">
<svg version="1.0" xmlns="http://www.w3.org/2000/svg"
 width="700.000000pt" height="700.000000pt" viewBox="0 0 700.000000 700.000000"
 preserveAspectRatio="xMidYMid meet">
<metadata>
Created by potrace 1.11, written by Peter Selinger 2001-2013
</metadata>
<g transform="translate(0.000000,700.000000) scale(0.100000,-0.100000)"
fill="#000000" stroke="none">
<path d="M3370 5866 c-3 -2 -43 -7 -90 -11 -47 -3 -92 -8 -100 -10 -8 -3 -35
-7 -60 -10 -25 -3 -52 -8 -60 -10 -8 -2 -31 -7 -50 -10 -215 -36 -478 -135
-635 -240 -196 -130 -262 -269 -205 -432 11 -31 18 -59 16 -62 -2 -3 -112 -6
-243 -5 l-239 0 -80 68 c-88 76 -110 87 -151 80 -65 -11 -107 -65 -99 -129 4
-32 15 -50 56 -88 56 -55 57 -50 -12 -117 -67 -66 -60 -158 15 -193 68 -33 94
-24 184 64 38 36 78 70 88 75 12 6 165 9 360 9 l340 -2 75 -51 c141 -96 310
-167 480 -204 112 -24 302 -28 425 -8 91 14 295 70 340 94 17 9 34 16 38 16
13 0 226 108 257 130 16 11 32 20 37 20 17 0 107 -272 127 -385 36 -199 19
-381 -50 -533 -73 -161 -220 -306 -401 -396 l-52 -26 -1019 0 c-1105 0 -1072
1 -1187 -55 -104 -51 -196 -156 -237 -273 -38 -106 -28 -254 23 -354 l19 -38
-162 -1 c-184 -1 -200 -3 -277 -29 -137 -49 -243 -158 -290 -299 -36 -106 -25
-255 25 -354 l15 -27 -89 0 c-187 0 -322 -67 -419 -208 -52 -75 -74 -137 -80
-224 -17 -221 115 -418 327 -487 l63 -21 2551 0 c2759 0 2596 -3 2706 52 25
12 80 57 122 100 43 43 123 115 179 159 135 108 273 240 409 390 164 181 349
470 448 701 67 157 138 390 158 518 3 19 10 64 16 100 14 84 19 392 7 453 -11
62 -35 94 -80 108 -28 9 -45 8 -73 -1 -42 -13 -65 -44 -90 -120 -27 -81 -83
-196 -134 -275 -141 -222 -399 -472 -698 -679 -60 -42 -114 -79 -120 -83 -24
-18 -240 -147 -304 -182 -25 -14 -63 -35 -85 -47 -34 -19 -145 -74 -149 -74 0
0 -1 33 -2 73 -1 153 -83 296 -217 381 -96 61 -132 68 -342 73 -264 5 -247 -1
-168 60 134 103 232 207 320 342 198 300 267 642 268 1326 0 243 -6 323 -36
466 -108 523 -451 803 -1079 884 -57 8 -624 18 -630 11z"/>
</g>
</svg>
