<?xml version="1.0" encoding="iso-8859-1"?>
<!-- Generator: Adobe Illustrator 19.0.0, SVG Export Plug-In . SVG Version: 6.00 Build 0)  -->
<svg version="1.1" id="Capa_1" xmlns="http://www.w3.org/2000/svg" xmlns:xlink="http://www.w3.org/1999/xlink" x="0px" y="0px"
	 viewBox="0 0 511.998 511.998" style="enable-background:new 0 0 511.998 511.998;" xml:space="preserve">
<path style="fill:#FFFFFF;" d="M19.466,7.499H280.75l77.254,77.254c0,4.892,0,404.488,0,413.971c0,3.188-2.585,5.773-5.772,5.773
	H18.712c-3.923,0-7.104-3.181-7.104-7.104c0-21.359,0-459.652,0-482.035C11.608,11.018,15.126,7.499,19.466,7.499z"/>
<g>
	<path style="fill:#E4EAF8;" d="M31.609,497.394c0-21.359,0-459.652,0-482.035c0-4.34,3.518-7.858,7.858-7.858H19.466
		c-4.34,0-7.858,3.518-7.858,7.858c0,22.383,0,460.676,0,482.035c0,3.923,3.181,7.104,7.104,7.104h20.001
		C34.789,504.499,31.609,501.317,31.609,497.394z"/>
	<path style="fill:#E4EAF8;" d="M280.75,78.56V7.499l77.254,77.254h-71.06C283.522,84.754,280.75,81.981,280.75,78.56z"/>
</g>
<path style="fill:#FF9052;" d="M355.532,154.7c-41.033,0-74.296,33.263-74.296,74.298v29.401c4.965-4.603,12.03-7.104,18.925-6.183
	v-3.702c0-2.943,2.513-5.268,5.426-5.047c28.726,2.063,57.96-7.064,80.063-21.504c2.063-1.348,4.796-1.013,6.473,0.789
	c18.897,20.312,18.783,19.526,18.783,22.178v7.27c7.558-1.133,14.263,1.203,18.922,5.534v-28.736
	C429.828,187.963,396.566,154.7,355.532,154.7z"/>
<path style="fill:#FF8031;" d="M301.176,228.998c0-37.65,28.01-68.737,64.326-73.611c-3.263-0.438-6.587-0.685-9.971-0.685
	c-41.034,0-74.296,33.263-74.296,74.296v29.401c4.965-4.603,12.03-7.104,18.925-6.183v-3.702c0-1.143,0.382-2.19,1.016-3.033
	V228.998z"/>
<path style="fill:#E4EAF8;" d="M409.922,249.247v40.699c0,0.441-0.023,0.877-0.034,1.316c14.403,2.181,25.683-8.225,25.683-21.006
	C435.57,257.451,424.281,247.095,409.922,249.247z"/>
<path style="fill:#FFBEAB;" d="M301.144,289.947v-40.683c-12.539-1.674-25.65,7.948-25.65,20.994
	c0,12.764,11.255,23.189,25.682,21.006C301.166,290.824,301.144,290.387,301.144,289.947z"/>
<g>
	<path style="fill:#C2C7D0;" d="M427.94,253.989c-4.602-3.818-10.936-5.803-18.018-4.742v40.699c0,0.441-0.023,0.877-0.034,1.316
		c7.104,1.076,13.446-0.915,18.052-4.739V253.989z"/>
	<path style="fill:#C2C7D0;" d="M301.144,286.526c-4.733-3.93-7.631-9.798-7.631-16.27c0-6.297,3.06-11.793,7.631-15.609v-5.385
		c-12.539-1.674-25.65,7.949-25.65,20.994c0,12.764,11.255,23.189,25.682,21.006c-0.011-0.439-0.032-0.876-0.032-1.316
		L301.144,286.526L301.144,286.526z"/>
</g>
<path style="fill:#E4EAF8;" d="M356.323,343.544c-12.003,0-22.551-3.295-31.179-8.808v29.159l31.046,38.32l31.045-38.32v-29.981
	C378.44,339.981,367.791,343.544,356.323,343.544z"/>
<path style="fill:#C2C7D0;" d="M345.027,342.517c-7.401-1.373-14.078-4.072-19.882-7.78v29.159l19.882,24.542V342.517z"/>
<path style="fill:#FFFFFF;" d="M469.363,393.733l-82.129-31.807l-31.045,38.32l-31.046-38.32l-82.043,31.807
	c0,0-30.376,12.488-30.376,47.117v56.582c0,3.902,3.163,7.066,7.066,7.066h272.944c3.868,0,7.004-3.136,7.004-7.004V440.85
	C499.739,406.221,469.363,393.733,469.363,393.733z"/>
<path style="fill:#ABFFDB;" d="M232.607,497.432v-65.53c0-23.758,14.297-37.092,23.274-43.125l-12.78,4.954
	c0,0-30.377,12.488-30.377,47.117v56.582c0,3.902,3.164,7.066,7.066,7.066h19.882C235.771,504.499,232.607,501.334,232.607,497.432z
	"/>
<path style="fill:#FFFFFF;" d="M392.123,220.783c-1.677-1.802-4.409-2.137-6.473-0.789c-22.103,14.439-51.337,23.567-80.063,21.503
	c-2.913-0.221-5.426,2.104-5.426,5.047v44.386c0,28.527,22.352,54.582,56.162,54.582c30.097,0,54.583-24.486,54.583-54.582v-47.969
	C410.906,240.31,411.02,241.096,392.123,220.783z"/>
<path style="fill:#E4EAF8;" d="M320.042,290.931v-49.318c-4.809,0.256-9.64,0.231-14.456-0.115
	c-2.913-0.221-5.427,2.104-5.427,5.047v44.386c0,28.527,22.352,54.582,56.162,54.582c3.119,0,6.173-0.277,9.151-0.782
	C339.721,340.363,320.042,317.907,320.042,290.931z"/>
<g>
	<path style="fill:#ABFFDB;" d="M393.674,419.937l23.215-46.527l-29.655-11.485l-31.045,38.32l30.268,21.496
		C388.908,423.484,392.332,422.627,393.674,419.937z"/>
	<path style="fill:#ABFFDB;" d="M318.747,419.937l-23.215-46.527l29.655-11.485l31.045,38.32l-30.268,21.496
		C323.515,423.484,320.089,422.627,318.747,419.937z"/>
</g>
<path style="fill:#6DC296;" d="M356.23,400.273v-0.027l-0.019,0.013l-0.019-0.013v0.027l-22.014,15.635l10.406,15.662
	c8.396,0,14.861,0,23.254,0l10.406-15.662L356.23,400.273z"/>
<path style="fill:#5FA77E;" d="M367.227,408.085l-10.998-7.81v-0.026l-0.018,0.013l-0.019-0.013v0.026l-22.014,15.635l10.407,15.662
	c8.096,0,14.385,0,22.033,0l-8.545-12.86c-1.037-1.561-0.647-3.665,0.881-4.75L367.227,408.085z"/>
<path style="fill:#ABFFDB;" d="M334.705,504.499h43.012l-9.879-72.927c-8.395,0-14.861,0-23.254,0L334.705,504.499z"/>
<path style="fill:#92E0C0;" d="M344.583,431.57l-9.879,72.927h22.033l9.878-72.927C358.935,431.57,352.71,431.57,344.583,431.57z"/>
<circle style="fill:#FF9052;" cx="184.8" cy="133.927" r="49.173"/>
<path style="fill:#C2C7D0;" d="M300.751,78.56V27.501L280.75,7.499v71.06c0,3.421,2.773,6.194,6.193,6.194h20.001
	C303.523,84.754,300.751,81.981,300.751,78.56z"/>
<path style="fill:#FF8031;" d="M155.629,133.931c0-23.733,16.813-43.538,39.177-48.158c-3.229-0.667-6.573-1.02-10.001-1.02
	c-27.16,0-49.178,22.017-49.178,49.178c0,27.16,22.017,49.177,49.178,49.177c3.427,0,6.771-0.353,10.001-1.02
	C172.441,177.469,155.629,157.665,155.629,133.931z"/>
<g>
	<path style="fill:#AFB5BC;" d="M281.197,243.859H88.427c-4.142,0-7.5-3.358-7.5-7.5c0-4.142,3.358-7.5,7.5-7.5h192.77
		c4.142,0,7.5,3.358,7.5,7.5C288.697,240.501,285.339,243.859,281.197,243.859z"/>
	<path style="fill:#AFB5BC;" d="M277.32,289.716H88.427c-4.142,0-7.5-3.358-7.5-7.5s3.358-7.5,7.5-7.5H277.32
		c4.142,0,7.5,3.358,7.5,7.5S281.462,289.716,277.32,289.716z"/>
	<path style="fill:#AFB5BC;" d="M281.197,335.571H88.427c-4.142,0-7.5-3.358-7.5-7.5s3.358-7.5,7.5-7.5h192.77
		c4.142,0,7.5,3.358,7.5,7.5S285.339,335.571,281.197,335.571z"/>
	<path style="fill:#AFB5BC;" d="M281.197,381.427H88.427c-4.142,0-7.5-3.358-7.5-7.5s3.358-7.5,7.5-7.5h192.77
		c4.142,0,7.5,3.358,7.5,7.5S285.339,381.427,281.197,381.427z"/>
	<path style="fill:#AFB5BC;" d="M217.747,427.284H88.427c-4.142,0-7.5-3.358-7.5-7.5s3.358-7.5,7.5-7.5h129.321
		c4.142,0,7.5,3.358,7.5,7.5S221.889,427.284,217.747,427.284z"/>
</g>
<path style="fill:#474D54;" d="M500.667,450.523c4.142,0,7.5-3.358,7.5-7.5v-1.736c0-39.255-33.639-53.537-35.071-54.125
	c-0.047-0.02-0.095-0.039-0.143-0.057l-77.463-29.999V339.95c12.207-9.639,20.726-23.75,23.061-39.838
	c6.084-0.587,11.724-2.952,16.368-6.947c6.333-5.447,9.967-13.373,9.967-21.744c0-6.826-2.414-13.356-6.737-18.484v-23.823
	c0-42.129-31.969-76.931-72.921-81.421V84.754c0-0.001,0-0.002,0-0.004c0-0.057-0.001-0.113-0.002-0.169
	c0-0.008,0-0.017-0.001-0.025c-0.002-0.058-0.004-0.116-0.006-0.174l0,0c-0.003-0.057-0.006-0.114-0.011-0.171
	c-0.001-0.014-0.002-0.028-0.003-0.042c-0.003-0.042-0.007-0.084-0.011-0.126c-0.002-0.017-0.003-0.033-0.005-0.05
	c-0.005-0.049-0.01-0.097-0.016-0.146c-0.002-0.013-0.003-0.025-0.005-0.038c-0.006-0.046-0.012-0.091-0.019-0.137
	c-0.003-0.023-0.007-0.046-0.01-0.068c-0.005-0.032-0.01-0.064-0.015-0.095c-0.004-0.022-0.007-0.044-0.011-0.066
	c-0.009-0.049-0.018-0.098-0.028-0.147c-0.003-0.016-0.007-0.033-0.01-0.049c-0.008-0.038-0.016-0.076-0.024-0.113
	c-0.005-0.023-0.01-0.045-0.015-0.068c-0.008-0.033-0.016-0.066-0.024-0.099c-0.005-0.02-0.009-0.039-0.014-0.059
	c-0.013-0.05-0.026-0.099-0.039-0.148c-0.005-0.017-0.01-0.033-0.014-0.05c-0.01-0.037-0.021-0.074-0.032-0.111
	c-0.006-0.019-0.011-0.038-0.017-0.057c-0.011-0.036-0.023-0.072-0.034-0.108c-0.005-0.017-0.011-0.033-0.016-0.05
	c-0.017-0.051-0.034-0.101-0.052-0.152c-0.004-0.01-0.008-0.02-0.011-0.031c-0.016-0.043-0.032-0.086-0.048-0.13
	c-0.005-0.013-0.01-0.026-0.015-0.039c-0.017-0.044-0.035-0.089-0.053-0.133c-0.003-0.008-0.006-0.016-0.009-0.023
	c-0.022-0.054-0.045-0.107-0.069-0.161c-0.001-0.002-0.002-0.004-0.003-0.006c-0.022-0.049-0.045-0.099-0.068-0.148
	c-0.004-0.009-0.009-0.018-0.013-0.028c-0.023-0.049-0.047-0.097-0.071-0.146c-0.001-0.002-0.002-0.005-0.003-0.007
	c-0.027-0.053-0.054-0.107-0.083-0.16c-0.001-0.001-0.002-0.003-0.003-0.005c-0.026-0.049-0.053-0.098-0.081-0.147
	c-0.004-0.007-0.008-0.014-0.012-0.021c-0.027-0.047-0.054-0.094-0.082-0.141c-0.002-0.003-0.003-0.006-0.005-0.009
	c-0.06-0.1-0.123-0.199-0.188-0.297c-0.005-0.007-0.01-0.015-0.015-0.022c-0.029-0.042-0.057-0.085-0.087-0.127
	c-0.004-0.006-0.009-0.012-0.013-0.019c-0.034-0.048-0.068-0.095-0.103-0.143c-0.001-0.002-0.002-0.003-0.003-0.005
	c-0.032-0.043-0.065-0.086-0.098-0.128c-0.008-0.011-0.017-0.022-0.026-0.033c-0.028-0.036-0.057-0.072-0.086-0.107
	c-0.008-0.009-0.015-0.018-0.022-0.028c-0.036-0.044-0.073-0.088-0.111-0.132c-0.002-0.002-0.004-0.005-0.006-0.007
	c-0.034-0.04-0.069-0.079-0.104-0.118c-0.011-0.013-0.023-0.025-0.035-0.038c-0.027-0.029-0.054-0.059-0.082-0.088
	c-0.012-0.013-0.025-0.026-0.037-0.039c-0.038-0.04-0.077-0.08-0.117-0.12l-77.256-77.25c-0.711-0.711-1.54-1.256-2.433-1.626
	c0,0,0,0-0.001,0c-0.052-0.022-0.105-0.043-0.158-0.063c-0.008-0.003-0.015-0.006-0.023-0.009c-0.05-0.019-0.1-0.038-0.151-0.056
	c-0.004-0.001-0.008-0.003-0.012-0.004c-0.052-0.019-0.104-0.036-0.156-0.054c-0.017-0.006-0.034-0.011-0.051-0.017
	c-0.035-0.011-0.069-0.022-0.104-0.033c-0.021-0.006-0.041-0.013-0.062-0.019c-0.033-0.01-0.066-0.019-0.099-0.029
	c-0.029-0.008-0.059-0.017-0.088-0.025c-0.037-0.01-0.074-0.02-0.111-0.029c-0.029-0.007-0.058-0.014-0.087-0.021
	c-0.021-0.005-0.042-0.01-0.063-0.015c-0.031-0.007-0.063-0.015-0.095-0.021c-0.019-0.004-0.038-0.008-0.056-0.012
	c-0.07-0.015-0.139-0.029-0.21-0.041l-0.015-0.003c-0.037-0.007-0.074-0.013-0.111-0.019c-0.014-0.002-0.028-0.004-0.042-0.007
	c-0.036-0.006-0.073-0.011-0.109-0.017c-0.01-0.001-0.02-0.003-0.029-0.004c-0.073-0.01-0.147-0.019-0.221-0.027
	c-0.01-0.001-0.021-0.002-0.031-0.004c-0.036-0.004-0.073-0.007-0.109-0.01c-0.015-0.001-0.03-0.003-0.045-0.004
	c-0.036-0.003-0.073-0.006-0.11-0.009c-0.006,0-0.013-0.001-0.019-0.001c-0.07-0.005-0.14-0.008-0.211-0.011
	c-0.02-0.001-0.041-0.002-0.061-0.002c-0.031-0.001-0.061-0.002-0.092-0.002c-0.025,0-0.05-0.001-0.075-0.001
	c-0.021,0-0.042-0.001-0.063-0.001H19.189C10.72-0.001,3.83,6.889,3.83,15.358v482.035c0,8.053,6.551,14.605,14.605,14.605h475.217
	c8.004,0,14.516-6.512,14.516-14.516v-19.458c0-4.142-3.358-7.5-7.5-7.5s-7.5,3.358-7.5,7.5v18.973h-36.776v-43.791
	c0-4.142-3.358-7.5-7.5-7.5s-7.5,3.358-7.5,7.5v43.791h-57.331l-7.714-63.164l4.605-6.93l1.917,1.362
	c2.121,1.506,4.631,2.293,7.179,2.293c1.006,0,2.018-0.123,3.014-0.372c3.52-0.881,6.468-3.248,8.089-6.495l0,0l20.201-40.485
	l46.086,17.848c1.218,0.525,25.73,11.5,25.73,40.232v1.736C493.167,447.165,496.525,450.523,500.667,450.523z M337.493,433.834
	l-7.712,63.163h-57.286v-43.791c0-4.142-3.358-7.5-7.5-7.5c-4.142,0-7.5,3.358-7.5,7.5v43.791h-36.777v-55.711
	c0-0.349,0.004-0.696,0.011-1.04c0.004-0.186,0.009-0.372,0.015-0.557c0.002-0.052,0.003-0.103,0.005-0.155
	c0.012-0.337,0.027-0.671,0.045-1.003c0.009-0.162,0.019-0.324,0.029-0.486c0.008-0.121,0.016-0.241,0.025-0.361
	c0.01-0.138,0.021-0.276,0.032-0.414c0.017-0.201,0.034-0.402,0.053-0.601c0.047-0.498,0.102-0.99,0.164-1.477
	c0-0.002,0-0.004,0.001-0.005c0.021-0.162,0.043-0.324,0.065-0.485c0.02-0.143,0.04-0.285,0.061-0.426
	c0.025-0.166,0.05-0.332,0.077-0.496c0.008-0.051,0.016-0.102,0.025-0.153c0.044-0.272,0.091-0.542,0.14-0.811
	c0.002-0.008,0.003-0.017,0.005-0.025c0.004-0.019,0.007-0.038,0.011-0.058c0.033-0.177,0.066-0.352,0.1-0.527
	c0-0.003,0.001-0.005,0.002-0.008c0.027-0.135,0.054-0.271,0.082-0.405c0.042-0.203,0.085-0.405,0.13-0.605
	c0.016-0.074,0.033-0.148,0.05-0.221c0.119-0.523,0.246-1.038,0.382-1.545c0.003-0.013,0.007-0.026,0.01-0.038
	c0.065-0.241,0.131-0.48,0.199-0.718c0.01-0.034,0.019-0.067,0.029-0.101c0.177-0.611,0.366-1.21,0.565-1.798
	c0.006-0.019,0.012-0.037,0.019-0.056c0.011-0.033,0.023-0.066,0.034-0.099c0.048-0.139,0.096-0.278,0.145-0.416
	c0.047-0.131,0.094-0.261,0.141-0.391c0.046-0.125,0.092-0.249,0.139-0.373c0.018-0.048,0.036-0.095,0.055-0.143
	c0.014-0.037,0.028-0.073,0.042-0.11c0.008-0.02,0.016-0.041,0.024-0.061c0.056-0.146,0.113-0.291,0.171-0.435
	c0.055-0.138,0.111-0.275,0.167-0.411c0.012-0.028,0.023-0.056,0.035-0.084c0.004-0.009,0.008-0.018,0.011-0.027
	c0.064-0.153,0.128-0.305,0.193-0.457c0.027-0.064,0.055-0.127,0.083-0.19c0.008-0.017,0.015-0.034,0.022-0.052
	c0.023-0.051,0.045-0.103,0.068-0.154c0.013-0.029,0.025-0.058,0.038-0.086c0.053-0.119,0.106-0.237,0.16-0.355
	c0.09-0.198,0.182-0.395,0.275-0.59c0.005-0.011,0.011-0.023,0.016-0.034c0.058-0.122,0.117-0.244,0.176-0.365
	c0.034-0.07,0.069-0.14,0.103-0.21c0.014-0.028,0.027-0.056,0.041-0.083c0.012-0.025,0.025-0.049,0.037-0.074
	c0.026-0.051,0.051-0.103,0.077-0.154c0.096-0.189,0.192-0.376,0.29-0.562c0.059-0.112,0.118-0.224,0.178-0.335
	c0.03-0.056,0.06-0.111,0.09-0.167c0.01-0.018,0.019-0.035,0.029-0.053c0.017-0.031,0.034-0.062,0.051-0.093
	c0.063-0.115,0.127-0.23,0.191-0.344c0.102-0.181,0.204-0.361,0.308-0.539c0.039-0.066,0.077-0.133,0.116-0.199
	c0.062-0.106,0.125-0.212,0.188-0.317c0.003-0.005,0.005-0.009,0.008-0.014c0.021-0.035,0.042-0.069,0.063-0.104
	c0.022-0.036,0.044-0.073,0.066-0.109c0.001-0.002,0.003-0.005,0.004-0.007c0.164-0.269,0.329-0.534,0.497-0.796
	c0.025-0.039,0.05-0.078,0.075-0.117c0.066-0.102,0.132-0.204,0.198-0.305c0.023-0.034,0.045-0.068,0.068-0.103
	c0.022-0.033,0.044-0.067,0.066-0.1c0.06-0.09,0.12-0.179,0.18-0.268c0.117-0.174,0.235-0.346,0.354-0.516
	c0.012-0.017,0.023-0.033,0.035-0.05c0.078-0.112,0.157-0.224,0.236-0.335c0.013-0.019,0.027-0.037,0.04-0.056
	c0.032-0.045,0.064-0.09,0.097-0.135c0.022-0.031,0.044-0.061,0.066-0.092c0.023-0.031,0.046-0.063,0.069-0.094
	c0.022-0.03,0.044-0.061,0.067-0.091c0.024-0.033,0.049-0.066,0.073-0.099c0.006-0.008,0.011-0.015,0.017-0.023
	c0.122-0.165,0.245-0.329,0.368-0.491c0.028-0.037,0.056-0.074,0.085-0.111c0.075-0.098,0.15-0.195,0.225-0.292
	c0.004-0.006,0.009-0.011,0.013-0.017c0.229-0.294,0.46-0.583,0.693-0.866c0.01-0.012,0.02-0.024,0.03-0.036
	c0.132-0.161,0.265-0.32,0.399-0.478c0.005-0.006,0.01-0.012,0.015-0.018c0.09-0.106,0.18-0.212,0.271-0.317
	c0.025-0.029,0.051-0.058,0.076-0.088c0.023-0.027,0.046-0.053,0.069-0.08c0.088-0.101,0.177-0.201,0.265-0.301
	c0.007-0.008,0.015-0.017,0.022-0.025c0.014-0.016,0.028-0.031,0.042-0.047c0.18-0.201,0.36-0.4,0.54-0.595
	c0.009-0.01,0.018-0.019,0.027-0.029c0.622-0.671,1.248-1.307,1.873-1.908c0.012-0.011,0.023-0.022,0.035-0.033
	c5.893-5.657,11.662-8.24,12.381-8.55l46.039-17.848l0,0l20.201,40.486l0,0c1.621,3.247,4.569,5.614,8.089,6.495
	c0.997,0.249,2.008,0.372,3.014,0.372c2.548,0,5.058-0.787,7.178-2.292l1.918-1.362L337.493,433.834z M293.143,284.778
	c-0.044-0.011-0.088-0.022-0.132-0.034c-0.022-0.006-0.044-0.011-0.066-0.017c-0.044-0.012-0.089-0.024-0.133-0.036
	c-0.022-0.006-0.045-0.012-0.067-0.019c-0.045-0.013-0.09-0.026-0.135-0.039c-0.018-0.005-0.035-0.01-0.053-0.016
	c-0.048-0.014-0.097-0.029-0.145-0.043c-0.016-0.005-0.033-0.01-0.049-0.015c-0.05-0.016-0.1-0.031-0.15-0.047
	c-0.011-0.004-0.022-0.007-0.033-0.011c-0.054-0.017-0.107-0.035-0.161-0.053c-0.01-0.003-0.02-0.007-0.03-0.01
	c-0.055-0.019-0.11-0.037-0.164-0.057c-0.005-0.002-0.009-0.003-0.014-0.005c-0.059-0.021-0.118-0.042-0.177-0.064
	c-0.001,0-0.002-0.001-0.003-0.001c-0.434-0.16-0.859-0.341-1.273-0.541c-0.005-0.003-0.01-0.005-0.016-0.008
	c-0.049-0.024-0.099-0.048-0.148-0.073c-0.012-0.006-0.024-0.012-0.037-0.018c-0.048-0.024-0.095-0.048-0.142-0.073
	c-0.012-0.006-0.025-0.013-0.037-0.019c-0.044-0.023-0.088-0.046-0.132-0.07c-0.017-0.009-0.033-0.018-0.05-0.027
	c-0.043-0.023-0.086-0.047-0.128-0.07c-0.016-0.009-0.033-0.018-0.049-0.027c-0.042-0.024-0.084-0.048-0.127-0.072
	c-0.016-0.009-0.033-0.019-0.049-0.028c-0.041-0.024-0.082-0.048-0.122-0.072c-0.019-0.011-0.037-0.022-0.056-0.033
	c-0.039-0.023-0.078-0.047-0.116-0.07c-0.019-0.012-0.039-0.024-0.058-0.036c-0.037-0.023-0.074-0.046-0.11-0.069
	c-0.022-0.014-0.043-0.027-0.065-0.041c-0.035-0.022-0.07-0.045-0.105-0.068c-0.023-0.015-0.046-0.031-0.07-0.046
	c-0.034-0.022-0.068-0.045-0.101-0.067c-0.02-0.014-0.04-0.028-0.061-0.041c-0.037-0.025-0.073-0.05-0.11-0.075
	c-0.019-0.013-0.037-0.026-0.056-0.04c-0.037-0.026-0.074-0.052-0.111-0.078c-0.018-0.013-0.036-0.026-0.053-0.039
	c-0.037-0.027-0.074-0.054-0.111-0.081c-0.019-0.014-0.038-0.028-0.056-0.042c-0.035-0.026-0.07-0.053-0.105-0.079
	c-0.021-0.016-0.043-0.033-0.064-0.05c-0.032-0.025-0.064-0.049-0.096-0.074c-0.026-0.02-0.052-0.041-0.078-0.062
	c-0.028-0.022-0.055-0.044-0.083-0.066c-0.025-0.02-0.05-0.041-0.074-0.061c-0.029-0.023-0.057-0.047-0.085-0.07
	c-0.052-0.043-0.104-0.087-0.155-0.131c-3.017-2.595-4.748-6.375-4.748-10.374c0-0.077,0.001-0.153,0.002-0.229
	c0.001-0.04,0.002-0.079,0.003-0.119c0.001-0.036,0.002-0.073,0.003-0.109c0.002-0.044,0.004-0.087,0.006-0.131
	c0.002-0.031,0.003-0.063,0.005-0.094c0.003-0.054,0.007-0.108,0.011-0.162c0.001-0.017,0.002-0.035,0.004-0.052
	c0.005-0.063,0.01-0.125,0.016-0.187c0.001-0.009,0.002-0.018,0.002-0.027c0.148-1.565,0.598-2.947,1.188-4.139
	c0.009-0.017,0.017-0.034,0.026-0.051c0.014-0.028,0.028-0.056,0.043-0.084c0.022-0.043,0.044-0.087,0.067-0.13
	c0.002-0.003,0.003-0.006,0.005-0.009c1.104-2.093,2.646-3.596,3.754-4.494l0,0c0.061-0.049,0.12-0.099,0.178-0.15
	c1.606-1.263,3.448-2.219,5.375-2.818v26.381c-0.024-0.006-0.047-0.011-0.071-0.017
	C293.189,284.789,293.166,284.783,293.143,284.778z M324.756,414.28l-18.219-36.514l16.891-6.542l22.626,27.929l-15.545,11.041
	c-0.03,0.021-0.06,0.044-0.09,0.066L324.756,414.28z M380.49,359.586l-23.57,29.095l-23.613-29.148v-10.396
	c6.871,2.583,14.536,4.073,22.918,4.163c0.049,0,0.099,0.001,0.148,0.001c0.078,0.001,0.156,0.001,0.234,0.002
	c0.14,0.001,0.281,0.001,0.421,0.001h0.003c0.13,0,0.26,0,0.391-0.001c0.047,0,0.094-0.001,0.141-0.001
	c0.083-0.001,0.165-0.001,0.248-0.002c0.053-0.001,0.105-0.002,0.158-0.002c0.08-0.001,0.16-0.002,0.239-0.004
	c0.054-0.001,0.108-0.002,0.162-0.003c0.072-0.002,0.144-0.003,0.216-0.005c0.071-0.002,0.141-0.004,0.212-0.006
	c0.059-0.002,0.117-0.003,0.176-0.005c0.069-0.002,0.137-0.005,0.206-0.007c0.061-0.002,0.123-0.004,0.184-0.006
	c0.067-0.003,0.135-0.005,0.202-0.008c0.064-0.003,0.128-0.005,0.192-0.008c0.062-0.003,0.125-0.005,0.187-0.008
	c0.066-0.003,0.133-0.006,0.199-0.01c0.067-0.003,0.135-0.007,0.202-0.01c0.058-0.003,0.117-0.006,0.175-0.009
	c0.075-0.004,0.15-0.009,0.226-0.013c0.048-0.003,0.097-0.006,0.145-0.009c0.082-0.005,0.165-0.01,0.247-0.016
	c0.047-0.003,0.094-0.006,0.141-0.009c0.079-0.005,0.159-0.011,0.238-0.017c0.046-0.003,0.092-0.007,0.138-0.01
	c0.088-0.006,0.176-0.013,0.264-0.02c0.032-0.002,0.063-0.005,0.095-0.007c0.094-0.007,0.188-0.015,0.282-0.023
	c0.037-0.003,0.075-0.006,0.112-0.01c0.09-0.008,0.18-0.016,0.27-0.024c0.032-0.003,0.064-0.006,0.097-0.009
	c0.099-0.009,0.197-0.018,0.296-0.028c0.017-0.002,0.034-0.003,0.051-0.005c0.11-0.011,0.219-0.022,0.329-0.033
	c0.013-0.001,0.026-0.003,0.039-0.004c5.954-0.617,11.661-2.078,16.999-4.261L380.49,359.586L380.49,359.586z M384.058,329.772
	c-0.11,0.068-0.219,0.139-0.327,0.213c-5.666,3.908-12.026,6.493-18.708,7.64c-0.008,0.001-0.015,0.003-0.023,0.004
	c-0.137,0.023-0.274,0.046-0.411,0.068c-0.019,0.003-0.037,0.006-0.056,0.009c-0.393,0.063-0.787,0.121-1.182,0.174
	c-0.05,0.007-0.1,0.013-0.151,0.02c-0.109,0.014-0.218,0.028-0.328,0.042c-0.062,0.008-0.124,0.015-0.186,0.022
	c-0.17,0.02-0.34,0.04-0.511,0.058c-0.084,0.009-0.169,0.019-0.253,0.027c-0.088,0.009-0.177,0.018-0.265,0.026
	c-0.09,0.009-0.179,0.018-0.269,0.026c-0.086,0.008-0.172,0.016-0.259,0.023c-0.101,0.009-0.202,0.017-0.303,0.025
	c-0.072,0.006-0.144,0.012-0.216,0.017c-0.165,0.012-0.33,0.024-0.495,0.035c-0.065,0.004-0.129,0.008-0.194,0.012
	c-0.119,0.007-0.237,0.014-0.356,0.021c-0.067,0.004-0.134,0.007-0.202,0.01c-0.144,0.007-0.289,0.014-0.434,0.019
	c-0.032,0.001-0.064,0.003-0.096,0.004c-0.178,0.007-0.357,0.012-0.536,0.017c-0.052,0.001-0.103,0.002-0.155,0.004
	c-0.135,0.003-0.271,0.006-0.406,0.008c-0.054,0.001-0.107,0.002-0.161,0.002c-0.182,0.002-0.364,0.003-0.546,0.003
	c-0.14,0-0.28-0.001-0.42-0.002c-0.052,0-0.105-0.001-0.157-0.001c-0.081-0.001-0.161-0.002-0.242-0.003
	c-0.071-0.001-0.143-0.002-0.214-0.003c-0.05-0.001-0.1-0.002-0.15-0.003c-27.639-0.567-44.923-20.957-47.286-42.168
	c-0.133-1.261-0.217-2.533-0.248-3.814c0-0.012,0-0.024,0-0.036l-0.015-0.501c-0.007-0.211-0.015-0.422-0.015-0.634v-41.869
	c21.668,1.08,44.486-3.671,65.076-13.344c5.307-2.493,10.468-5.312,15.421-8.445c0.145,0.156,0.289,0.311,0.432,0.464
	c0.106,0.114,0.211,0.227,0.316,0.339c0.485,0.52,0.956,1.024,1.413,1.514c0.106,0.113,0.211,0.226,0.315,0.337
	c0.298,0.319,0.59,0.632,0.877,0.938c0.24,0.257,0.476,0.509,0.708,0.757c0.337,0.36,0.665,0.711,0.986,1.053
	c0.079,0.084,0.157,0.167,0.235,0.25c0.155,0.166,0.309,0.33,0.46,0.491c0.076,0.081,0.151,0.161,0.226,0.241
	c0.299,0.319,0.59,0.63,0.874,0.932c0.355,0.378,0.697,0.744,1.029,1.097c3.687,3.931,6.359,6.779,7.545,8.187v47.056
	c0,0.203-0.008,0.403-0.015,0.604l-0.016,0.531c-0.004,0.157-0.002,0.313,0.003,0.468
	C403.655,308.045,395.818,321.521,384.058,329.772z M425.139,281.789c-1.711,1.472-3.73,2.49-5.94,3.022v-26.784
	c1.177,0.284,2.3,0.705,3.351,1.258c0.002,0.001,0.003,0.002,0.005,0.003c0.051,0.027,0.103,0.055,0.154,0.082
	c0.032,0.017,0.063,0.035,0.095,0.052c0.022,0.012,0.044,0.024,0.066,0.037c0.958,0.538,1.853,1.19,2.673,1.953
	c0.045,0.042,0.091,0.083,0.137,0.124c2.682,2.565,4.206,6.127,4.206,9.882C429.886,275.415,428.156,279.195,425.139,281.789z
	 M423.149,229.111v14.423c-1.29-0.33-2.609-0.575-3.95-0.733c-0.001-0.184-0.004-0.364-0.008-0.538c0-0.012-0.001-0.025-0.001-0.037
	c-0.001-0.024-0.001-0.048-0.002-0.071c0-0.011-0.001-0.022-0.001-0.033c-0.001-0.023-0.001-0.047-0.002-0.07
	c0-0.014-0.001-0.028-0.002-0.042c-0.001-0.023-0.002-0.046-0.003-0.069c0-0.006,0-0.011-0.001-0.017
	c-0.001-0.029-0.003-0.058-0.004-0.087c0-0.009-0.001-0.017-0.001-0.026c-0.001-0.025-0.003-0.05-0.004-0.075
	c-0.001-0.01-0.001-0.02-0.002-0.03c-0.001-0.025-0.003-0.05-0.004-0.075c0-0.008-0.001-0.016-0.002-0.024
	c-0.002-0.025-0.003-0.05-0.005-0.076c-0.001-0.012-0.002-0.025-0.003-0.037c-0.001-0.019-0.003-0.038-0.004-0.057
	c-0.002-0.024-0.004-0.049-0.006-0.073c0-0.006-0.001-0.012-0.001-0.018c-0.002-0.026-0.004-0.052-0.007-0.077
	c-0.001-0.008-0.001-0.017-0.002-0.025c-0.002-0.021-0.004-0.042-0.006-0.063c-0.001-0.012-0.002-0.024-0.003-0.036
	c-0.002-0.023-0.005-0.046-0.007-0.07c-0.001-0.008-0.002-0.015-0.002-0.023c-0.003-0.024-0.005-0.048-0.008-0.072
	c-0.001-0.008-0.002-0.017-0.003-0.025c-0.003-0.022-0.005-0.044-0.008-0.066c-0.001-0.011-0.003-0.021-0.004-0.032
	c-0.003-0.02-0.005-0.041-0.008-0.061c-0.002-0.011-0.003-0.023-0.005-0.034c-0.003-0.02-0.006-0.04-0.008-0.06
	c-0.002-0.012-0.003-0.024-0.005-0.037c-0.003-0.018-0.005-0.035-0.008-0.053c-0.002-0.014-0.004-0.028-0.006-0.042
	c-0.003-0.018-0.006-0.036-0.009-0.055c-0.002-0.013-0.004-0.025-0.006-0.038c-0.003-0.019-0.007-0.039-0.01-0.058
	c-0.002-0.01-0.004-0.02-0.005-0.03c-0.004-0.023-0.008-0.046-0.013-0.069c-0.001-0.006-0.002-0.013-0.004-0.019
	c-0.005-0.027-0.01-0.053-0.016-0.08c0-0.002-0.001-0.004-0.001-0.006c-0.006-0.028-0.012-0.057-0.017-0.085
	c-0.001-0.003-0.001-0.005-0.002-0.008c-0.005-0.025-0.011-0.05-0.016-0.075c-0.002-0.008-0.003-0.015-0.005-0.023
	c-0.005-0.022-0.01-0.045-0.016-0.067c-0.002-0.008-0.004-0.017-0.006-0.025c-0.005-0.02-0.01-0.041-0.015-0.061
	c-0.003-0.011-0.005-0.021-0.008-0.032c-0.005-0.021-0.011-0.042-0.016-0.063c-0.002-0.008-0.004-0.016-0.006-0.024
	c-0.005-0.021-0.011-0.042-0.017-0.062l-0.009-0.031c-0.006-0.022-0.012-0.044-0.018-0.066l-0.005-0.017
	c-0.007-0.024-0.014-0.047-0.021-0.071c-0.002-0.008-0.005-0.016-0.007-0.024c-0.007-0.023-0.014-0.047-0.022-0.07
	c-0.001-0.005-0.003-0.009-0.004-0.014c-0.008-0.025-0.016-0.05-0.024-0.075c-0.002-0.006-0.004-0.013-0.006-0.019
	c-0.008-0.023-0.015-0.046-0.023-0.069c-0.003-0.008-0.005-0.015-0.008-0.023c-0.008-0.023-0.016-0.046-0.024-0.069
	c-0.002-0.005-0.004-0.011-0.006-0.016c-0.009-0.026-0.019-0.053-0.029-0.079c0-0.001-0.001-0.002-0.001-0.003
	c-0.011-0.029-0.022-0.058-0.033-0.087c-0.001-0.002-0.001-0.003-0.002-0.005c-0.011-0.028-0.022-0.056-0.033-0.084
	c-0.001-0.003-0.003-0.006-0.004-0.01c-0.011-0.027-0.021-0.053-0.032-0.08c-0.002-0.005-0.004-0.01-0.006-0.015
	c-0.01-0.025-0.021-0.051-0.032-0.076c-0.002-0.005-0.004-0.009-0.006-0.013c-0.024-0.057-0.049-0.113-0.075-0.17
	c-0.002-0.005-0.004-0.009-0.006-0.014c-0.012-0.026-0.024-0.053-0.037-0.079c-0.001-0.003-0.003-0.006-0.004-0.009
	c-0.416-0.89-1.04-1.843-1.97-3.021c-0.002-0.002-0.004-0.005-0.005-0.007c-0.289-0.365-0.607-0.753-0.957-1.166
	c-0.002-0.002-0.003-0.004-0.005-0.006c-0.075-0.088-0.151-0.177-0.229-0.268c-0.006-0.007-0.011-0.013-0.017-0.02
	c-0.034-0.04-0.068-0.08-0.103-0.12c-0.006-0.007-0.013-0.015-0.019-0.022c-0.081-0.093-0.162-0.188-0.246-0.284
	c-0.001-0.001-0.003-0.003-0.004-0.004c-0.086-0.098-0.173-0.198-0.262-0.299c-0.001-0.001-0.002-0.003-0.003-0.004
	c-0.133-0.151-0.269-0.304-0.409-0.462c-0.004-0.005-0.008-0.009-0.012-0.014c-0.09-0.101-0.182-0.204-0.275-0.308
	c-0.007-0.008-0.015-0.017-0.022-0.025c-0.04-0.044-0.08-0.089-0.12-0.134c-0.012-0.013-0.023-0.026-0.035-0.039
	c-0.044-0.048-0.088-0.097-0.132-0.146c-0.001-0.001-0.002-0.002-0.003-0.003c-0.153-0.17-0.311-0.343-0.472-0.52
	c0,0,0,0-0.001-0.001c-0.106-0.116-0.213-0.233-0.322-0.353c-0.007-0.007-0.013-0.014-0.02-0.021
	c-0.049-0.054-0.099-0.108-0.149-0.163c-0.007-0.007-0.013-0.014-0.02-0.022c-0.273-0.297-0.557-0.605-0.852-0.924
	c-0.037-0.04-0.074-0.08-0.112-0.12c-0.025-0.027-0.05-0.054-0.076-0.082c-0.018-0.019-0.035-0.038-0.053-0.057
	c-0.234-0.252-0.475-0.511-0.723-0.777c-0.035-0.037-0.07-0.075-0.104-0.112c-0.039-0.042-0.079-0.084-0.118-0.127
	c-0.116-0.124-0.233-0.25-0.352-0.377c-0.018-0.019-0.036-0.039-0.054-0.058c-0.018-0.019-0.036-0.039-0.055-0.058
	c-0.123-0.132-0.248-0.266-0.375-0.401c-0.02-0.021-0.039-0.042-0.059-0.063c-0.417-0.445-0.851-0.909-1.304-1.392
	c-0.048-0.051-0.096-0.102-0.144-0.154c-0.196-0.209-0.395-0.421-0.598-0.637c-0.226-0.241-0.458-0.488-0.694-0.74
	c-0.158-0.168-0.318-0.339-0.481-0.513c-0.081-0.087-0.163-0.174-0.246-0.262c-2.149-2.292-4.719-5.037-7.794-8.342
	c-0.065-0.07-0.131-0.139-0.198-0.208c-0.067-0.068-0.134-0.136-0.201-0.202c-0.001-0.001-0.003-0.003-0.004-0.004
	c-0.977-0.959-2.079-1.731-3.256-2.31c-3.197-1.574-6.953-1.728-10.31-0.344c-0.724,0.298-1.429,0.667-2.106,1.109
	c-20.285,13.252-44.571,20.584-67.717,20.61c-0.805,0.001-1.609-0.007-2.411-0.024c-1.003-0.021-2.003-0.056-3-0.105
	c-0.399-0.02-0.797-0.042-1.195-0.066c-0.398-0.024-0.795-0.05-1.192-0.079c-3.46-0.264-6.918,0.945-9.476,3.315
	c-0.046,0.043-0.092,0.086-0.137,0.13c-0.014,0.014-0.029,0.028-0.043,0.042c-0.032,0.03-0.063,0.061-0.094,0.092
	c-0.016,0.016-0.032,0.032-0.048,0.048c-0.031,0.031-0.061,0.062-0.092,0.092c-0.015,0.015-0.029,0.03-0.044,0.044
	c-0.042,0.044-0.085,0.088-0.126,0.132c-0.012,0.013-0.023,0.025-0.035,0.038c-0.03,0.032-0.06,0.065-0.09,0.097
	c-0.018,0.019-0.035,0.038-0.053,0.058c-0.026,0.028-0.051,0.057-0.076,0.085c-0.017,0.019-0.034,0.038-0.05,0.057
	c-0.026,0.03-0.052,0.059-0.078,0.089c-0.019,0.021-0.037,0.043-0.056,0.065c-0.035,0.041-0.07,0.083-0.105,0.125
	c-0.015,0.018-0.029,0.035-0.043,0.053c-0.025,0.03-0.049,0.06-0.074,0.091c-0.017,0.021-0.034,0.043-0.051,0.064
	c-0.021,0.027-0.042,0.053-0.063,0.08c-0.018,0.023-0.036,0.046-0.053,0.069c-0.033,0.043-0.066,0.086-0.098,0.129
	c-0.01,0.014-0.02,0.027-0.03,0.041c-0.029,0.04-0.059,0.08-0.088,0.12c-0.014,0.02-0.028,0.039-0.042,0.058
	c-0.022,0.031-0.044,0.061-0.065,0.092c-0.016,0.022-0.031,0.045-0.047,0.067c-0.023,0.034-0.046,0.068-0.069,0.102
	c-0.011,0.016-0.022,0.031-0.032,0.047c-0.034,0.05-0.067,0.1-0.1,0.151c-0.012,0.018-0.023,0.036-0.035,0.054
	c-0.022,0.034-0.044,0.068-0.065,0.102c-0.014,0.022-0.027,0.043-0.041,0.065c-0.019,0.031-0.039,0.063-0.058,0.094
	c-0.014,0.023-0.028,0.047-0.042,0.07c-0.022,0.036-0.043,0.073-0.065,0.109c-0.009,0.016-0.018,0.031-0.027,0.047
	c-0.03,0.052-0.059,0.103-0.089,0.155c-0.012,0.021-0.023,0.042-0.035,0.063c-0.018,0.033-0.036,0.066-0.054,0.099
	c-0.013,0.023-0.025,0.046-0.037,0.069c-0.017,0.032-0.034,0.064-0.051,0.096c-0.013,0.024-0.026,0.049-0.038,0.073
	c-0.026,0.051-0.053,0.103-0.079,0.155c-0.006,0.012-0.012,0.025-0.018,0.037c-0.021,0.043-0.043,0.087-0.064,0.13
	c-0.01,0.021-0.02,0.042-0.03,0.063c-0.016,0.035-0.033,0.069-0.049,0.104c-0.011,0.024-0.022,0.048-0.033,0.073
	c-0.015,0.034-0.031,0.068-0.046,0.102c-0.01,0.023-0.02,0.046-0.03,0.069c-0.023,0.053-0.046,0.106-0.068,0.159
	c-0.01,0.023-0.019,0.047-0.029,0.071c-0.013,0.032-0.027,0.065-0.04,0.098c-0.011,0.028-0.022,0.056-0.033,0.084
	c-0.012,0.03-0.023,0.059-0.035,0.089c-0.011,0.027-0.021,0.054-0.031,0.082c-0.014,0.038-0.029,0.076-0.043,0.115
	c-0.012,0.032-0.024,0.065-0.035,0.097c-0.014,0.04-0.029,0.08-0.043,0.12c-0.01,0.03-0.02,0.059-0.03,0.089
	c-0.01,0.028-0.019,0.056-0.028,0.084c-0.01,0.03-0.02,0.06-0.029,0.09c-0.009,0.029-0.018,0.057-0.027,0.086
	c-0.007,0.022-0.014,0.044-0.021,0.066c-1.522,0.208-3.032,0.532-4.514,0.965v-14.839c0-36.894,30.016-66.91,66.909-66.91
	c0.217,0,0.432,0.009,0.647,0.016c0.231,0.008,0.462,0.016,0.693,0.02c0.193,0.005,0.385,0.001,0.576-0.009
	C394.167,163.247,423.149,192.858,423.149,229.111z M287.973,25.608l51.646,51.646h-51.646V25.608z M18.831,15.358
	c0-0.198,0.161-0.358,0.358-0.358h253.783v63.56c0,7.551,6.143,13.695,13.694,13.695h63.56v55.164
	c-0.06,0.004-0.121,0.009-0.181,0.014c-0.059,0.005-0.119,0.009-0.178,0.014c-0.114,0.009-0.227,0.018-0.341,0.027
	c-0.053,0.004-0.107,0.009-0.16,0.013c-0.122,0.01-0.244,0.021-0.366,0.031c-0.046,0.004-0.093,0.008-0.139,0.012
	c-0.134,0.012-0.268,0.025-0.402,0.037c-0.031,0.003-0.062,0.006-0.093,0.009c-0.146,0.014-0.292,0.028-0.437,0.043
	c-0.024,0.002-0.047,0.005-0.071,0.007c-34.882,3.56-63.354,29.099-71.309,62.504c-0.003,0.013-0.006,0.027-0.01,0.04
	c-0.034,0.145-0.068,0.289-0.102,0.434c-0.008,0.033-0.015,0.066-0.023,0.099c-0.029,0.128-0.059,0.256-0.088,0.384
	c-0.009,0.039-0.018,0.079-0.026,0.118c-0.028,0.126-0.056,0.251-0.083,0.377c-0.008,0.036-0.016,0.073-0.024,0.109
	c-0.028,0.128-0.055,0.255-0.082,0.383c-0.008,0.038-0.016,0.076-0.024,0.113c-0.026,0.125-0.052,0.249-0.078,0.374
	c-0.009,0.042-0.017,0.083-0.026,0.125c-0.025,0.123-0.05,0.245-0.074,0.368c-0.008,0.042-0.017,0.084-0.025,0.126
	c-0.025,0.127-0.05,0.253-0.074,0.38c-0.007,0.036-0.014,0.073-0.021,0.109c-0.024,0.125-0.047,0.25-0.071,0.375
	c-0.008,0.044-0.016,0.088-0.025,0.132c-0.023,0.124-0.046,0.249-0.068,0.373c-0.007,0.039-0.014,0.078-0.021,0.117
	c-0.023,0.127-0.045,0.253-0.067,0.38c-0.007,0.041-0.014,0.082-0.022,0.124c-0.021,0.121-0.041,0.243-0.062,0.365
	c-0.008,0.045-0.015,0.09-0.023,0.135c-0.022,0.135-0.044,0.271-0.066,0.406c-0.005,0.028-0.009,0.056-0.014,0.085
	c-0.022,0.137-0.043,0.275-0.065,0.413c-0.005,0.031-0.01,0.063-0.015,0.094c-0.021,0.14-0.042,0.28-0.063,0.42
	c-0.004,0.027-0.008,0.055-0.012,0.082c-0.098,0.668-0.188,1.339-0.27,2.012c-0.007,0.06-0.014,0.12-0.021,0.18
	c-0.013,0.107-0.026,0.215-0.038,0.322c-0.007,0.062-0.014,0.123-0.021,0.185c-0.012,0.108-0.024,0.216-0.036,0.324
	c-0.007,0.061-0.013,0.122-0.019,0.183c-0.011,0.106-0.023,0.212-0.033,0.318c-0.007,0.067-0.013,0.134-0.02,0.2
	c-0.01,0.103-0.021,0.205-0.03,0.308c-0.006,0.067-0.013,0.135-0.019,0.202c-0.009,0.1-0.019,0.199-0.028,0.299
	c-0.007,0.074-0.013,0.147-0.019,0.221c-0.008,0.095-0.017,0.19-0.024,0.285c-0.006,0.074-0.012,0.149-0.018,0.223
	c-0.008,0.095-0.015,0.19-0.023,0.285c-0.006,0.075-0.011,0.15-0.017,0.225c-0.007,0.098-0.014,0.195-0.021,0.293
	c-0.005,0.068-0.01,0.136-0.014,0.205c-0.007,0.101-0.014,0.203-0.02,0.304c-0.005,0.072-0.009,0.143-0.014,0.215
	c-0.006,0.098-0.012,0.196-0.018,0.293c-0.004,0.074-0.009,0.148-0.013,0.222c-0.005,0.092-0.01,0.184-0.015,0.276
	c-0.004,0.081-0.009,0.163-0.013,0.244c-0.005,0.09-0.009,0.181-0.013,0.272c-0.004,0.078-0.007,0.157-0.011,0.235
	c-0.004,0.093-0.008,0.186-0.012,0.279c-0.003,0.079-0.006,0.157-0.009,0.236c-0.003,0.088-0.006,0.177-0.009,0.265
	c-0.003,0.086-0.006,0.171-0.009,0.257c-0.003,0.084-0.005,0.168-0.007,0.252c-0.002,0.086-0.005,0.172-0.007,0.257
	c-0.002,0.088-0.004,0.175-0.006,0.263c-0.002,0.085-0.004,0.169-0.005,0.254c-0.002,0.1-0.003,0.201-0.005,0.301
	c-0.001,0.068-0.002,0.136-0.003,0.204c-0.002,0.144-0.003,0.288-0.004,0.432c0,0.027-0.001,0.055-0.001,0.083
	c-0.001,0.174-0.002,0.349-0.002,0.523v24.449c-4.167,4.837-6.51,10.708-6.719,16.945c0,0.001,0,0.001,0,0.002
	c-0.003,0.088-0.006,0.177-0.008,0.265c-0.001,0.048-0.002,0.095-0.003,0.143c-0.001,0.056-0.002,0.112-0.003,0.168
	c-0.001,0.112-0.002,0.223-0.002,0.335c0,1.701,0.15,3.383,0.442,5.03c0.045,0.253,0.093,0.506,0.145,0.757
	c0.129,0.629,0.279,1.252,0.449,1.869c0.068,0.247,0.139,0.492,0.214,0.737c0.037,0.122,0.075,0.244,0.114,0.366
	c0.156,0.487,0.324,0.969,0.505,1.446c0.091,0.239,0.184,0.476,0.281,0.712c1.696,4.129,4.352,7.85,7.816,10.83
	c1.264,1.087,2.603,2.054,4.004,2.897c0.004,0.002,0.008,0.005,0.012,0.007c0.09,0.054,0.181,0.108,0.272,0.161
	c0.002,0.001,0.004,0.002,0.006,0.003c0.466,0.273,0.939,0.532,1.418,0.778c0.009,0.005,0.018,0.009,0.027,0.014
	c0.088,0.045,0.175,0.089,0.263,0.133c0.007,0.004,0.014,0.007,0.021,0.011c0.479,0.238,0.963,0.463,1.454,0.674
	c0.013,0.005,0.025,0.011,0.038,0.016c0.083,0.035,0.165,0.07,0.248,0.105c0.018,0.008,0.036,0.015,0.054,0.023
	c0.082,0.034,0.164,0.068,0.246,0.101l0.044,0.018c0.094,0.038,0.188,0.075,0.282,0.112c0.003,0.001,0.006,0.002,0.008,0.003
	c0.199,0.078,0.399,0.153,0.599,0.226c0.013,0.005,0.027,0.01,0.04,0.014c0.082,0.03,0.164,0.059,0.246,0.088
	c0.026,0.009,0.052,0.018,0.079,0.028c0.074,0.026,0.147,0.051,0.221,0.076c0.026,0.009,0.051,0.018,0.077,0.026
	c0.071,0.024,0.142,0.048,0.214,0.071c0.03,0.01,0.059,0.02,0.089,0.029c0.074,0.024,0.149,0.048,0.224,0.072
	c0.023,0.007,0.047,0.015,0.07,0.022c0.196,0.062,0.394,0.121,0.592,0.179c0.031,0.009,0.063,0.018,0.095,0.027
	c0.065,0.019,0.13,0.037,0.195,0.056c0.043,0.012,0.086,0.024,0.13,0.036c0.054,0.015,0.107,0.029,0.161,0.044
	c0.048,0.013,0.095,0.026,0.143,0.038c0.051,0.014,0.103,0.027,0.154,0.04c0.046,0.012,0.092,0.024,0.139,0.035
	c0.053,0.013,0.106,0.027,0.159,0.04c0.048,0.012,0.097,0.024,0.145,0.036c0.049,0.012,0.098,0.023,0.147,0.035
	c0.128,0.03,0.257,0.06,0.386,0.089c0.011,0.002,0.022,0.005,0.032,0.007c0.063,0.014,0.126,0.027,0.189,0.041
	c0.037,0.008,0.075,0.016,0.112,0.024c0.061,0.013,0.123,0.025,0.184,0.038c0.035,0.007,0.071,0.014,0.106,0.021
	c0.063,0.013,0.125,0.025,0.188,0.037c0.037,0.007,0.073,0.014,0.11,0.021c0.064,0.012,0.129,0.024,0.193,0.036
	c0.027,0.005,0.055,0.01,0.082,0.015c0.352,0.063,0.706,0.12,1.062,0.171c0.002,0,0.004,0,0.005,0.001
	c0.088,0.013,0.177,0.025,0.265,0.037c0.008,0.001,0.017,0.002,0.025,0.003c0.086,0.011,0.173,0.023,0.259,0.033
	c0.01,0.001,0.021,0.003,0.031,0.004c0.278,0.034,0.557,0.065,0.838,0.092c2.167,14.955,9.687,28.547,21.142,38.261
	c1.038,0.89,2.11,1.749,3.216,2.574v16.159l-77.38,29.999c-0.047,0.018-0.094,0.037-0.141,0.056
	c-1.146,0.471-22.945,9.723-31.586,33.548c-0.084,0.232-0.167,0.466-0.249,0.702c-0.245,0.706-0.479,1.424-0.7,2.155
	c-0.037,0.122-0.073,0.244-0.11,0.366c-0.181,0.613-0.353,1.234-0.516,1.864c-0.294,1.135-0.557,2.298-0.788,3.49
	c-0.051,0.265-0.101,0.531-0.149,0.8c-0.072,0.402-0.141,0.807-0.205,1.216c-0.043,0.272-0.084,0.546-0.124,0.821
	c-0.416,2.89-0.643,5.942-0.643,9.163v55.711H18.831V15.358z M344.893,496.998l7.021-57.504h10.01l7.021,57.504H344.893z
	 M364.542,424.493h-15.247l-4.172-6.279l11.795-8.377l11.795,8.377L364.542,424.493z M389.083,414.28l-5.668-4.025
	c-0.028-0.021-0.056-0.042-0.085-0.062l-15.572-11.06l17.682-21.827l4.938-6.095l16.924,6.555L389.083,414.28z"/>
<g>
</g>
<g>
</g>
<g>
</g>
<g>
</g>
<g>
</g>
<g>
</g>
<g>
</g>
<g>
</g>
<g>
</g>
<g>
</g>
<g>
</g>
<g>
</g>
<g>
</g>
<g>
</g>
<g>
</g>
</svg>
