<?xml version="1.0" encoding="iso-8859-1"?>
<!-- Generator: Adobe Illustrator 19.0.0, SVG Export Plug-In . SVG Version: 6.00 Build 0)  -->
<svg version="1.1" id="Capa_1" xmlns="http://www.w3.org/2000/svg" xmlns:xlink="http://www.w3.org/1999/xlink" x="0px" y="0px"
	 viewBox="0 0 512 512" style="enable-background:new 0 0 512 512;" xml:space="preserve">
<path style="fill:#5EE2C5;" d="M512,256c0,141.385-114.615,256-256,256S0,397.385,0,256S114.615,0,256,0S512,114.615,512,256z"/>
<path style="fill:#596C76;" d="M442.633,431.204c-25.271,26.909-56.29,48.348-91.103,62.36l-34.074,10.992
	C297.766,509.408,277.187,512,256,512s-41.766-2.592-61.456-7.444l-34.073-10.991c-34.813-14.012-65.833-35.452-91.104-62.361
	V241.421c0-3.325,2.696-6.021,6.021-6.021h361.224c3.325,0,6.02,2.695,6.02,6.021v189.783H442.633z"/>
<path style="fill:#465A61;" d="M49.709,430.78C55.886,436.877,60,447.726,60,460.101c0,6.819-1.253,13.171-3.408,18.526
	c-5.84,0.949-12.011,1.468-18.403,1.468s-12.563-0.519-18.403-1.468c-2.155-5.354-3.408-11.707-3.408-18.526
	c0-12.375,4.114-23.224,10.291-29.321c-1.887-2.453-3.021-5.515-3.021-8.848c0-5.379,2.928-10.064,7.271-12.58v-161.91H45.46v161.91
	c4.342,2.515,7.27,7.201,7.27,12.58C52.729,425.265,51.596,428.327,49.709,430.78z M370.237,235.401H141.763l-44.702,14.42v-14.42
	H75.388c-3.325,0-6.021,2.695-6.021,6.021v189.783c8.593,9.15,17.847,17.671,27.694,25.48V312.577c0-7.349,7.661-12.188,14.297-9.03
	l140.237,66.737c2.864,0.924,5.946,0.924,8.81,0l182.228-86.72v-24.81L370.237,235.401z"/>
<path style="fill:#7A8C98;" d="M260.405,160.693l221.651,71.5c5.927,1.912,9.944,7.428,9.944,13.656l0,0
	c0,6.227-4.017,11.744-9.944,13.656l-221.651,71.5c-2.864,0.924-5.946,0.924-8.81,0l-221.651-71.5
	C24.017,257.593,20,252.077,20,245.849l0,0c0-6.227,4.017-11.744,9.944-13.656l221.651-71.5
	C254.459,159.769,257.541,159.769,260.405,160.693z"/>
<path style="fill:#FFF5F5;" d="M351.46,83.683c-1.953,1.952-4.513,2.929-7.071,2.929c-2.56,0-5.118-0.976-7.071-2.929
	C315.597,61.962,286.718,50,256,50c-30.717,0-59.597,11.962-81.317,33.683c-3.905,3.905-10.237,3.906-14.142,0
	s-3.905-10.237,0-14.142C186.039,44.042,219.94,30,256,30c36.061,0,69.962,14.042,95.46,39.541
	C355.365,73.446,355.365,79.778,351.46,83.683z M256,70c-25.375,0-49.232,9.882-67.175,27.825c-3.905,3.905-3.905,10.237,0,14.142
	s10.237,3.905,14.142,0C217.133,97.801,235.967,90,256,90s38.867,7.801,53.033,21.967c1.953,1.953,4.512,2.929,7.071,2.929
	s5.118-0.977,7.071-2.929c3.905-3.905,3.905-10.237,0-14.142C305.232,79.882,281.375,70,256,70z M256,110
	c-14.691,0-28.503,5.721-38.891,16.109c-3.905,3.905-3.905,10.237,0,14.143c3.905,3.905,10.237,3.905,14.143,0
	C237.862,133.641,246.651,130,256,130s18.138,3.641,24.748,10.251c1.953,1.953,4.512,2.929,7.071,2.929
	c2.559,0,5.118-0.977,7.071-2.929c3.905-3.905,3.905-10.237,0-14.142C284.503,115.721,270.691,110,256,110z"/>
<g>
</g>
<g>
</g>
<g>
</g>
<g>
</g>
<g>
</g>
<g>
</g>
<g>
</g>
<g>
</g>
<g>
</g>
<g>
</g>
<g>
</g>
<g>
</g>
<g>
</g>
<g>
</g>
<g>
</g>
</svg>
