<svg height="512pt" viewBox="-37 0 512 512" width="512pt" xmlns="http://www.w3.org/2000/svg"><path d="m438 413.019531v98.980469h-438v-98.980469c0-61.449219 42.210938-113.21875 99.160156-127.839843 10.5-2.699219 21.488282-4.128907 32.820313-4.128907h174.039062c11.332031 0 22.320313 1.429688 32.820313 4.128907 56.949218 14.621093 99.160156 66.390624 99.160156 127.839843zm0 0" fill="#ffaf12"/><path d="m438 413.019531v98.980469h-219v-230.949219h87.019531c11.332031 0 22.320313 1.429688 32.820313 4.128907 56.949218 14.621093 99.160156 66.390624 99.160156 127.839843zm0 0" fill="#f80"/><path d="m365 21h30v95h-30zm0 0" fill="#f80"/><path d="m97.5 0h243v159h-243zm0 0" fill="#005ed2"/><path d="m338.839844 285.179688-119.839844 162.050781-119.839844-162.050781c10.5-2.699219 21.488282-4.128907 32.820313-4.128907h174.039062c11.332031 0 22.320313 1.429688 32.820313 4.128907zm0 0" fill="#005ed2"/><path d="m306.019531 281.050781c11.332031 0 22.320313 1.429688 32.820313 4.128907l-119.839844 162.050781v-166.179688zm0 0" fill="#004eb1"/><path d="m219 0h121.5v159h-121.5zm0 0" fill="#004eb1"/><path d="m97.5 144v45.550781c0 66.988281 54.5 121.5 121.5 121.5s121.5-54.511719 121.5-121.5v-45.550781zm0 0" fill="#ffdaa8"/><path d="m219 144v167.050781c67 0 121.5-54.511719 121.5-121.5v-45.550781zm0 0" fill="#ffc373"/><path d="m16.5 0h405v30h-405zm0 0" fill="#08f"/><path d="m219 0h202.5v30h-202.5zm0 0" fill="#006ef4"/></svg>