<?xml version="1.0" encoding="iso-8859-1"?>
<!-- Generator: Adobe Illustrator 19.0.0, SVG Export Plug-In . SVG Version: 6.00 Build 0)  -->
<svg version="1.1" id="Layer_1" xmlns="http://www.w3.org/2000/svg" xmlns:xlink="http://www.w3.org/1999/xlink" x="0px" y="0px"
	 viewBox="0 0 512 512" style="enable-background:new 0 0 512 512;" xml:space="preserve">
<g id="Others">
</g>
<g id="Design">
</g>
<g id="SEO_x2F__Web">
</g>
<g id="Finance__x2F__Money">
</g>
<g id="E-Commerce__x2F__Shopping">
</g>
<g id="Strategy">
	<g id="chess">
		
			<radialGradient id="SVGID_1_" cx="256" cy="332.999" r="221.695" gradientTransform="matrix(1 0 0 -1 0 514)" gradientUnits="userSpaceOnUse">
			<stop  offset="0" style="stop-color:#9C56B8"/>
			<stop  offset="1" style="stop-color:#8F3FAF"/>
		</radialGradient>
		<path style="fill:url(#SVGID_1_);" d="M256,0C181.317,0,114.104,31.98,67.308,82.993C60.636,90.266,69.804,113.992,64,122
			c-8.444,11.652-31.356,7.977-37.77,20.992C9.435,177.075,0,215.436,0,256c0,37.806,8.195,73.697,22.906,105.996l466.186,0.006
			C503.804,329.702,512,293.808,512,256c0-13.608-1.062-26.968-3.106-40.001C507.492,207.067,482.3,198.6,480,190
			c-3.062-11.448,16.431-22.891,11.881-33.648C453.019,64.471,362.038,0,256,0z"/>
		<path style="fill:#33495F;" d="M67.315,83c-8.609,9.385-16.535,19.407-23.682,30c-6.449,9.558-12.256,19.583-17.389,30H79v-30V83
			H67.315z"/>
		<path style="fill:#2B3E51;" d="M79,113H43.634c-6.449,9.558-12.256,19.583-17.389,30H79V113z"/>
		<path style="fill:#E5BF88;" d="M379.823,171.75c25.413,0,46.168,20.675,46.168,46.088c0,13.558-5.892,26.369-16.236,35.148
			c-2.444,2.075-5.412,3.089-8.386,3.089c-3.685,0-7.336-1.559-9.908-4.588c-4.646-5.474-3.97-13.677,1.504-18.324
			c4.513-3.831,7.104-9.417,7.104-15.326c0-11.077-9.171-20.088-20.248-20.088c-0.224,0,0.178,0.026-0.822,0.034v-26.017
			C380,171.764,379.601,171.75,379.823,171.75z"/>
		<g>
			<path style="fill:#ECF0F1;" d="M489.084,362H22.916C63.222,450.485,152.424,512,256,512S448.778,450.485,489.084,362z"/>
			<g>
				<path style="fill:#2B3E51;" d="M22.916,362c4.734,10.393,10.15,20.407,16.178,30H56v-30H22.916z"/>
				<path style="fill:#2B3E51;" d="M56,392v23.788c1.678,2.098,3.388,4.169,5.13,6.212H106v-30H56z"/>
				<path style="fill:#2B3E51;" d="M106,463.453V452H91.336C96.081,455.99,100.971,459.811,106,463.453z"/>
				<rect x="106" y="362" style="fill:#2B3E51;" width="50" height="30"/>
				<rect x="106" y="422" style="fill:#2B3E51;" width="50" height="30"/>
				<path style="fill:#2B3E51;" d="M156,491.728V482h-20.323C142.286,485.526,149.062,488.78,156,491.728z"/>
				<rect x="156" y="392" style="fill:#2B3E51;" width="50" height="30"/>
				<rect x="156" y="452" style="fill:#2B3E51;" width="50" height="30"/>
				<rect x="206" y="362" style="fill:#2B3E51;" width="50" height="30"/>
				<rect x="206" y="422" style="fill:#2B3E51;" width="50" height="30"/>
				<path style="fill:#2B3E51;" d="M206,507.104c16.172,3.203,32.888,4.896,50,4.896v-30h-50V507.104z"/>
				<rect x="256" y="392" style="fill:#2B3E51;" width="50" height="30"/>
				<rect x="256" y="452" style="fill:#2B3E51;" width="50" height="30"/>
				<rect x="306" y="362" style="fill:#2B3E51;" width="50" height="30"/>
				<rect x="306" y="422" style="fill:#2B3E51;" width="50" height="30"/>
				<path style="fill:#2B3E51;" d="M306,507.104c17.361-3.438,34.094-8.621,50-15.376V482h-50V507.104z"/>
				<rect x="356" y="392" style="fill:#2B3E51;" width="50" height="30"/>
				<path style="fill:#2B3E51;" d="M356,482h20.323c10.336-5.515,20.247-11.717,29.677-18.547V452h-50V482z"/>
				<rect x="406" y="362" style="fill:#2B3E51;" width="50" height="30"/>
				<path style="fill:#2B3E51;" d="M420.664,452c10.879-9.149,20.984-19.185,30.206-30H406v30H420.664z"/>
				<path style="fill:#2B3E51;" d="M472.906,392H456v23.788C462.071,408.199,467.717,400.259,472.906,392z"/>
			</g>
		</g>
		<path style="opacity:0.8;fill:#ECF0F1;enable-background:new    ;" d="M97.996,348c0.887,0,2.004-0.301,2.004-1.188v-0.362
			c0-0.887-1.117-1.45-2.004-1.45H96v-2h-2.381c0,0-6.024-8-7.419-27h1.288c0.769,0,1.513-0.374,1.513-1.142v-0.076
			c0-0.769-0.744-1.782-1.513-1.782h-1.46c-0.032,0-0.058-1-0.076-2h1.536c0.769,0,1.513-0.377,1.513-1.146v-0.076
			c0-0.769-0.744-1.778-1.513-1.778h-0.381c1.385-1,2.23-3.454,2.23-5.722c0-4.968-4.027-8.897-8.994-8.897
			s-8.994,3.882-8.994,8.849c0,2.268,0.846,4.77,2.23,5.77H72.4c-0.769,0-1.4,1.009-1.4,1.778v0.076c0,0.769,0.631,1.146,1.4,1.146
			h2.334c-0.018,1-0.044,2-0.076,2H72.4c-0.769,0-1.4,1.013-1.4,1.782v0.076c0,0.769,0.631,1.142,1.4,1.142h2.086
			c-1.396,19-7.419,27-7.419,27H65v2h-2.394c-0.887,0-1.606,0.562-1.606,1.45v0.362c0,0.887,0.719,1.188,1.606,1.188H65v4h-0.788
			c-1.774,0-3.212,1.43-3.212,3.204v0.01c0,1.774,1.438,2.786,3.212,2.786h-0.714l5.424,4H91.62l5.496-4H96.39
			c1.774,0,3.61-1.012,3.61-2.786v-0.01c0-1.774-1.836-3.204-3.61-3.204H96v-4H97.996z"/>
		<path style="opacity:0.5;fill:#33495F;enable-background:new    ;" d="M193.563,352c0.637,0,1.437-0.268,1.437-0.905v-0.26
			c0-0.637-0.8-0.835-1.437-0.835H192v-2h-1.58c0,0-4.325-5-5.327-19h0.924c0.552,0,0.982-0.296,0.982-0.848v-0.054
			c0-0.552-0.43-1.098-0.982-1.098h-1.048c-0.023,0-0.042-1-0.055-2h1.103c0.552,0,0.982,0.111,0.982-0.441v-0.055
			c0-0.552-0.43-1.504-0.982-1.504h-0.273c0.994,0,1.602-2.366,1.602-3.994c0-3.566-2.892-6.332-6.458-6.332
			c-3.566,0-6.458,2.702-6.458,6.268c0,1.628,0.607,4.058,1.602,4.058h-0.847c-0.552,0-1.185,0.953-1.185,1.504v0.055
			c0,0.552,0.633,0.441,1.185,0.441h1.676c-0.013,1-0.032,2-0.055,2h-1.622c-0.552,0-1.185,0.545-1.185,1.098v0.054
			c0,0.552,0.633,0.848,1.185,0.848h1.498c-1.002,14-5.327,19-5.327,19H170v2h-1.847c-0.637,0-1.153,0.198-1.153,0.835v0.26
			c0,0.637,0.516,0.905,1.153,0.905H170v3h-0.694c-1.274,0-2.306,0.847-2.306,2.121v0.007c0,1.274,1.032,1.873,2.306,1.873h-0.513
			l3.895,3h16.297l3.946-3h-0.522c1.274,0,2.59-0.599,2.59-1.873v-0.007c0-1.274-1.316-2.121-2.59-2.121H192v-3L193.563,352
			L193.563,352z"/>
		<path style="opacity:0.8;fill:#ECF0F1;enable-background:new    ;" d="M293.563,352c0.637,0,1.437-0.268,1.437-0.905v-0.26
			c0-0.637-0.8-0.835-1.437-0.835H292v-2h-1.58c0,0-4.325-5-5.327-19h0.924c0.552,0,0.982-0.296,0.982-0.848v-0.054
			c0-0.552-0.43-1.098-0.982-1.098h-1.048c-0.023,0-0.042-1-0.055-2h1.103c0.552,0,0.982,0.111,0.982-0.441v-0.055
			c0-0.552-0.43-1.504-0.982-1.504h-0.273c0.994,0,1.602-2.366,1.602-3.994c0-3.566-2.892-6.332-6.458-6.332
			s-6.458,2.702-6.458,6.268c0,1.628,0.607,4.058,1.602,4.058h-0.847c-0.552,0-1.185,0.953-1.185,1.504v0.055
			c0,0.552,0.633,0.441,1.185,0.441h1.676c-0.013,1-0.032,2-0.055,2h-1.622c-0.552,0-1.185,0.545-1.185,1.098v0.054
			c0,0.552,0.633,0.848,1.185,0.848h1.498c-1.002,14-5.327,19-5.327,19H270v2h-1.847c-0.637,0-1.153,0.198-1.153,0.835v0.26
			c0,0.637,0.516,0.905,1.153,0.905H270v3h-0.694c-1.274,0-2.306,0.847-2.306,2.121v0.007c0,1.274,1.032,1.873,2.306,1.873h-0.513
			l3.895,3h16.297l3.946-3h-0.522c1.274,0,2.59-0.599,2.59-1.873v-0.007c0-1.274-1.316-2.121-2.59-2.121H292v-3L293.563,352
			L293.563,352z"/>
		<g>
			<polygon style="fill:#BDC3C7;" points="207.229,357 214.817,362 246.569,362 254.257,357 			"/>
			<rect x="209" y="335" style="fill:#BDC3C7;" width="44" height="13"/>
			<path style="fill:#ECF0F1;" d="M258,352.507c0,2.481-2.012,4.493-4.494,4.493h-45.013c-2.482,0-4.494-2.012-4.494-4.493v-0.014
				c0-2.481,2.012-4.493,4.494-4.493h45.013c2.482,0,4.494,2.012,4.494,4.493V352.507z"/>
			<path style="fill:#ECF0F1;" d="M258,340.753c0,1.241-1.006,2.247-2.247,2.247h-49.507c-1.241,0-2.247-1.006-2.247-2.247v-0.507
				c0-1.241,1.006-2.247,2.247-2.247h49.507c1.241,0,2.247,1.006,2.247,2.247V340.753z"/>
			<path style="fill:#ECF0F1;" d="M238.581,287h-15.577c0,34-10.784,48-10.784,48h37.144C249.365,335,238.581,321,238.581,287z"/>
			<circle style="fill:#ECF0F1;" cx="230.793" cy="278.725" r="12.581"/>
			<path style="fill:#BDC3C7;" d="M243,289.053c0,1.075-0.872,1.947-1.947,1.947h-21.105c-1.075,0-1.947-0.872-1.947-1.947v-0.106
				c0-1.075,0.872-1.947,1.947-1.947h21.105c1.075,0,1.947,0.872,1.947,1.947V289.053z"/>
			<path style="fill:#BDC3C7;" d="M243,296.053c0,1.076-0.872,1.947-1.947,1.947h-21.105c-1.075,0-1.947-0.872-1.947-1.947v-0.105
				c0-1.076,0.872-1.947,1.947-1.947h21.105c1.075,0,1.947,0.872,1.947,1.947V296.053z"/>
		</g>
		<g>
			<path style="fill:#33495F;" d="M389.09,264h-15.576c0,34-10.784,60-10.784,60h37.145C399.874,324,389.09,298,389.09,264z"/>
			<polygon style="fill:#2B3E51;" points="357.737,346 365.326,351 397.078,351 404.767,346 			"/>
			<rect x="359" y="324" style="fill:#2B3E51;" width="44" height="13"/>
			<path style="fill:#33495F;" d="M408,341.507c0,2.481-2.012,4.493-4.493,4.493h-45.014c-2.481,0-4.493-2.012-4.493-4.493v-0.014
				c0-2.481,2.012-4.493,4.493-4.493h45.014c2.481,0,4.493,2.012,4.493,4.493V341.507z"/>
			<path style="fill:#33495F;" d="M408,329.753c0,1.241-1.006,2.247-2.247,2.247h-49.507c-1.241,0-2.247-1.006-2.247-2.247v-0.507
				c0-1.241,1.006-2.247,2.247-2.247h49.507c1.241,0,2.247,1.006,2.247,2.247V329.753z"/>
			<circle style="fill:#33495F;" cx="381.302" cy="230.581" r="12.581"/>
			<polygon style="fill:#33495F;" points="398.077,243 364.527,243 370.518,264 392.085,264 			"/>
			<path style="fill:#2B3E51;" d="M402,242.053c0,1.076-0.872,1.947-1.947,1.947h-36.105c-1.075,0-1.947-0.872-1.947-1.947v-0.105
				c0-1.076,0.872-1.947,1.947-1.947h36.105c1.075,0,1.947,0.872,1.947,1.947V242.053z"/>
			<path style="fill:#2B3E51;" d="M394,264.053c0,1.075-0.872,1.947-1.947,1.947h-21.105c-1.075,0-1.947-0.872-1.947-1.947v-0.106
				c0-1.075,0.872-1.947,1.947-1.947h21.105c1.075,0,1.947,0.872,1.947,1.947V264.053z"/>
			<path style="fill:#2B3E51;" d="M394,278.053c0,1.075-0.872,1.947-1.947,1.947h-21.105c-1.075,0-1.947-0.872-1.947-1.947v-0.106
				c0-1.075,0.872-1.947,1.947-1.947h21.105c1.075,0,1.947,0.872,1.947,1.947V278.053z"/>
			<path style="fill:#2B3E51;" d="M394,285.053c0,1.076-0.872,1.947-1.947,1.947h-21.105c-1.075,0-1.947-0.872-1.947-1.947v-0.105
				c0-1.076,0.872-1.947,1.947-1.947h21.105c1.075,0,1.947,0.872,1.947,1.947V285.053z"/>
		</g>
		<path style="opacity:0.8;fill:#ECF0F1;enable-background:new    ;" d="M448.996,348c0.887,0,2.004-0.301,2.004-1.188v-0.362
			c0-0.887-1.117-1.45-2.004-1.45H447v-2h-2.381c0,0-6.024-8-7.419-27h1.288c0.769,0,1.513-0.374,1.513-1.142v-0.076
			c0-0.769-0.744-1.782-1.513-1.782h-1.46c-0.032,0-0.058-1-0.076-2h1.536c0.769,0,1.513-0.377,1.513-1.146v-0.076
			c0-0.769-0.744-1.778-1.513-1.778h-0.381c1.385-1,2.23-3.454,2.23-5.722c0-4.968-4.027-8.897-8.994-8.897
			s-8.994,3.882-8.994,8.849c0,2.268,0.846,4.77,2.23,5.77h-1.18c-0.769,0-1.4,1.009-1.4,1.778v0.076c0,0.769,0.631,1.146,1.4,1.146
			h2.334c-0.018,1-0.044,2-0.076,2H423.4c-0.769,0-1.4,1.013-1.4,1.782v0.076c0,0.769,0.631,1.142,1.4,1.142h2.086
			c-1.396,19-7.419,27-7.419,27H416v2h-2.394c-0.887,0-1.606,0.562-1.606,1.45v0.362c0,0.887,0.719,1.188,1.606,1.188H416v4h-0.788
			c-1.774,0-3.212,1.43-3.212,3.204v0.01c0,1.774,1.438,2.786,3.212,2.786h-0.714l5.424,4h22.698l5.496-4h-0.727
			c1.774,0,3.61-1.012,3.61-2.786v-0.01c0-1.774-1.836-3.204-3.61-3.204H447v-4H448.996z"/>
		<path style="opacity:0.5;fill:#33495F;enable-background:new    ;" d="M346.039,331.214c0,0,1.758-7.212-0.772-17.967
			c-1.334-5.67-6.363-7.868-10.821-8.681l-0.363-2.346l-1.265-0.633l-0.657,2.667c-2.967-0.279-5.248-0.031-5.248-0.031l0.738,4.639
			l0.056,0.108c-0.035,0.01-0.056,0.016-0.056,0.016l-8.698,9.063l2.056,6.657l6.642-5.032c6.009,8.856-8.065,19.748-8.065,19.748
			L319.323,348H318v1h-1.814c-0.655,0-1.186,0.531-1.186,1.186v0.628c0,0.655,0.531,1.186,1.186,1.186H318v3h-0.628
			c-1.31,0-2.372,1.062-2.372,2.372v0.256c0,1.31,1.062,2.372,2.372,2.372h0.756l2.671,2h16.764l2.706-2h1.36
			c1.31,0,2.372-1.062,2.372-2.372v-0.256c0-1.31-1.062-2.372-2.372-2.372H341v-3h1.814c0.655,0,1.186-0.531,1.186-1.186v-0.628
			c0-0.655-0.531-1.186-1.186-1.186H341v-1h-2.594c1.672-5.933,2.731-10.978,3.312-15.277L346.039,331.214z"/>
		<path style="fill:#E5BF88;" d="M148.338,98.75c-25.413,0-46.088,20.675-46.088,46.088c0,13.558,5.932,26.369,16.276,35.148
			c2.444,2.075,5.433,3.089,8.406,3.089c3.685,0,7.346-1.559,9.917-4.588c4.646-5.474,3.975-13.677-1.499-18.324
			c-4.513-3.831-7.101-9.417-7.101-15.326c0-11.077,9.011-20.088,20.088-20.088c0.224,0,0.44,0.026,0.662,0.034V98.767
			C148.779,98.764,148.56,98.75,148.338,98.75z"/>
		<g>
			<polygon style="fill:#BDC3C7;" points="116.395,260 123.983,265 155.736,265 163.424,260 			"/>
			<path style="fill:#BDC3C7;" d="M136.964,164.352l-1.398-8.787c0,0,29.97-3.276,34.763,17.093
				c4.792,20.37,1.462,34.031,1.462,34.031l-10.864,3.794L136.964,164.352z"/>
			<rect x="118" y="238" style="fill:#BDC3C7;" width="44" height="13"/>
			<path style="fill:#ECF0F1;" d="M167,255.507c0,2.481-2.012,4.493-4.493,4.493h-45.014c-2.481,0-4.493-2.012-4.493-4.493v-0.014
				c0-2.481,2.012-4.493,4.493-4.493h45.014c2.481,0,4.493,2.012,4.493,4.493L167,255.507L167,255.507z"/>
			<path style="fill:#ECF0F1;" d="M167,243.753c0,1.241-1.006,2.247-2.247,2.247h-49.507c-1.241,0-2.247-1.006-2.247-2.247v-0.507
				c0-1.241,1.006-2.247,2.247-2.247h49.507c1.241,0,2.247,1.006,2.247,2.247V243.753z"/>
			<path style="fill:#ECF0F1;" d="M121.188,238l0.499-16.006c0,0,26.66-20.509,15.277-37.284l-12.581,9.591l-3.894-12.579
				l16.475-17.393c0,0,44.933-13.33,20.37,73.67L121.188,238L121.188,238z"/>
			<polygon style="fill:#ECF0F1;" points="143.354,164.352 146.75,150.572 149.146,151.771 151.342,165.949 			"/>
			<polygon style="fill:#BDC3C7;" points="147,156.563 147,161.955 148.598,163.561 			"/>
		</g>
		<path style="fill:#E5BF88;" d="M264.059,125.345c-11.449-24.066-32.769-38.649-61.658-42.172
			c-4.91-0.599-9.635-0.817-14.001-0.804c10.607-4.085,24.579-6.704,36.493,0.328c6.183,3.648,14.154,1.595,17.803-4.588
			c3.649-6.183,1.595-14.154-4.588-17.803c-25.015-14.762-52.195-6.058-68.025,1.745c-1.74,0.429-3.923,1.555-6.658,3.567h-0.001
			c-3.908,2.271-6.348,4.02-6.837,4.377C133.411,83.014,99,87,99,87s-7.5,38,0,50s10,8.5,10,8.5s-5.7-14.249,13.001-27.698
			L149,124.784c10.769,0.354,19.426,9.201,19.426,20.054c0,5.691-2.311,10.947-6.506,14.801c-5.288,4.857-5.637,13.081-0.78,18.368
			c4.857,5.288,13.081,5.638,18.368,0.78c9.481-8.708,14.918-21.083,14.918-33.95c0-10.576-3.591-20.32-9.604-28.104
			c1.043,0.513,2.098,1.066,3.159,1.663c15.133,8.521,23.91,21.777,26.088,39.399c0.617,4.992,3.986,8.971,8.398,10.604
			c1.886,0.698,3.964,0.967,6.098,0.704c7.125-0.881,12.188-7.371,11.308-14.497c-1.637-13.249-5.98-25.048-12.83-35.102
			c5.713,4.393,10.236,10.071,13.537,17.009c3.084,6.483,10.841,9.239,17.324,6.154S267.143,131.828,264.059,125.345z"/>
		<rect x="79" y="85" style="fill:#ECF0F1;" width="20" height="55"/>
		<rect x="79" y="113" style="fill:#BDC3C7;" width="20" height="27"/>
		<path style="fill:#E5BF88;" d="M264.264,198.345c11.449-24.066,32.769-38.649,61.658-42.172c4.91-0.599,9.635-0.817,14.001-0.804
			c-10.607-4.085-24.579-6.704-36.493,0.328c-6.183,3.648-14.154,1.595-17.803-4.588c-3.649-6.183-1.595-14.154,4.588-17.803
			c25.015-14.762,52.195-6.058,68.025,1.745c1.74,0.429,3.923,1.555,6.658,3.567h0.001c3.908,2.271,6.348,4.02,6.837,4.377
			C394.912,156.014,429.322,160,429.322,160s7.5,38,0,50s-10.161,8.5-10.161,8.5s-6.827-14.249-25.827-27.698L379,197.784
			c-10,0.354-19.265,9.201-19.265,20.054c0,5.691,2.391,10.947,6.587,14.801c5.288,4.857,5.677,13.081,0.821,18.368
			c-4.857,5.288-13.061,5.638-18.348,0.78c-9.481-8.708-14.909-21.083-14.909-33.95c0-10.576,3.596-20.32,9.609-28.104
			c-1.043,0.513-2.096,1.066-3.157,1.663c-15.133,8.521-23.909,21.777-26.086,39.399c-0.617,4.992-3.985,8.971-8.398,10.604
			c-1.886,0.698-3.964,0.967-6.098,0.704c-7.125-0.881-12.188-7.371-11.307-14.497c1.637-13.249,5.98-25.048,12.83-35.102
			c-5.713,4.393-10.236,10.071-13.537,17.009c-3.084,6.483-10.841,9.239-17.324,6.154S261.179,204.828,264.264,198.345z"/>
		<rect x="429" y="158" style="fill:#ECF0F1;" width="20" height="55"/>
		<rect x="429" y="186" style="fill:#BDC3C7;" width="20" height="27"/>
		<path style="fill:#33495F;" d="M508.882,216c-1.603-10.212-3.799-20.227-6.571-30c-2.916-10.278-6.46-20.292-10.583-30H449v30l0,0
			v30H508.882z"/>
		<path style="fill:#2B3E51;" d="M449.322,186v30h59.56c-1.603-10.212-3.799-20.227-6.571-30H449.322z"/>
	</g>
</g>
<g>
</g>
<g>
</g>
<g>
</g>
<g>
</g>
<g>
</g>
<g>
</g>
<g>
</g>
<g>
</g>
<g>
</g>
<g>
</g>
<g>
</g>
<g>
</g>
<g>
</g>
<g>
</g>
<g>
</g>
</svg>
